<?xml version="1.0" encoding="utf-8"?>
<!DOCTYPE svg PUBLIC "-//W3C//DTD SVG 1.1//EN" "http://www.w3.org/Graphics/SVG/1.1/DTD/svg11.dtd">
<svg version="1.1" xmlns="http://www.w3.org/2000/svg" x="0px" y="0px" viewBox="0 0 24 24">
	<linearGradient id="gradient" x1="0%" y1="0%" x2="50%" y2="100%">
		<stop offset="0%" style="stop-color: #2f88d6" />
		<stop offset="100%" style="stop-color: #2ac4ea" />
    </linearGradient>
	<path fill="url(#gradient)" d="M21.5,8H20V1.5C20,0.673,19.327,0,18.5,0h-17C0.673,0,0,0.673,0,1.5v11C0,13.327,0.673,14,1.5,14H8v2H7
		c-0.276,0-0.5,0.224-0.5,0.5S6.724,17,7,17h4v5.5c0,0.827,0.673,1.5,1.5,1.5h9c0.827,0,1.5-0.673,1.5-1.5v-13
		C23,8.673,22.327,8,21.5,8z M12,16.5v-3V11h7.5H22v9H12V16.5z M22,9.5V10h-2.5H12V9.5C12,9.225,12.225,9,12.5,9h9
		C21.775,9,22,9.225,22,9.5z M1.5,1h17C18.775,1,19,1.225,19,1.5V8h-6.5C11.673,8,11,8.673,11,9.5V10H1V1.5C1,1.225,1.225,1,1.5,1z
		 M1,12.5V11h10v2H1.5C1.225,13,1,12.775,1,12.5z M9,14h2v2H9V14z M21.5,23h-9c-0.275,0-0.5-0.225-0.5-0.5V21h10v1.5
		C22,22.775,21.775,23,21.5,23z"/>
	<path fill="url(#gradient)" d="M17.289,21.438h-0.578c-0.276,0-0.5,0.224-0.5,0.5s0.224,0.5,0.5,0.5h0.578c0.276,0,0.5-0.224,0.5-0.5
	S17.565,21.438,17.289,21.438z"/>
</svg>
