<?xml version="1.0" encoding="utf-8"?>
<!DOCTYPE svg PUBLIC "-//W3C//DTD SVG 1.1//EN" "http://www.w3.org/Graphics/SVG/1.1/DTD/svg11.dtd">
<svg version="1.1" xmlns="http://www.w3.org/2000/svg" x="0px" y="0px" viewBox="0 0 24 24">
	<linearGradient id="gradient" x1="0%" y1="0%" x2="50%" y2="100%">
		<stop offset="0%" style="stop-color: #2f88d6" />
		<stop offset="100%" style="stop-color: #2ac4ea" />
    </linearGradient>
	<path fill="url(#gradient)" d="M12,0C5.383,0,0,5.383,0,12s5.383,12,12,12s12-5.383,12-12S18.617,0,12,0z M12,23
		C5.935,23,1,18.065,1,12S5.935,1,12,1s11,4.935,11,11S18.065,23,12,23z"/>
	<path fill="url(#gradient)" d="M7,11c1.103,0,2-0.897,2-2S8.103,7,7,7S5,7.897,5,9S5.897,11,7,11z M7,8c0.551,0,1,0.449,1,1
		s-0.449,1-1,1S6,9.551,6,9S6.449,8,7,8z"/>
	<path fill="url(#gradient)" d="M17,11c1.103,0,2-0.897,2-2s-0.897-2-2-2s-2,0.897-2,2S15.897,11,17,11z M17,8c0.551,0,1,0.449,1,1
		s-0.449,1-1,1s-1-0.449-1-1S16.449,8,17,8z"/>
	<path fill="url(#gradient)" d="M19.35,13H4.65c-0.15,0-0.293,0.067-0.387,0.184C4.168,13.3,4.13,13.453,4.16,13.6
		C4.919,17.309,8.216,20,12,20s7.081-2.691,7.84-6.4c0.03-0.147-0.007-0.3-0.102-0.416C19.643,13.067,19.5,13,19.35,13z M12,19
		c-3.102,0-5.832-2.069-6.709-5h13.419C17.832,16.931,15.102,19,12,19z"/>
</svg>
