<?xml version="1.0" encoding="utf-8"?>
<!DOCTYPE svg PUBLIC "-//W3C//DTD SVG 1.1//EN" "http://www.w3.org/Graphics/SVG/1.1/DTD/svg11.dtd">
<svg version="1.1" xmlns="http://www.w3.org/2000/svg" x="0px" y="0px" viewBox="0 0 24 24">
	<linearGradient id="gradient" x1="0%" y1="0%" x2="50%" y2="100%">
		<stop offset="0%" style="stop-color: #2f88d6" />
		<stop offset="100%" style="stop-color: #2ac4ea" />
    </linearGradient>
	<path fill="url(#gradient)" d="M21,12.552V10c0-2.404-0.937-4.664-2.637-6.363C16.663,1.937,14.403,1,12,1c-4.963,0-9,4.038-9,9v2.552
		C1.222,13.382,0,15.062,0,17c0,2.63,2.247,4.787,5.086,4.981C5.288,22.571,5.842,23,6.5,23C7.327,23,8,22.327,8,21.5v-9
		C8,11.673,7.327,11,6.5,11c-0.658,0-1.212,0.429-1.414,1.019C4.712,12.045,4.349,12.104,4,12.194V10c0-4.411,3.589-8,8-8
		c2.136,0,4.145,0.833,5.656,2.344S20,7.863,20,10v2.194c-0.349-0.09-0.712-0.149-1.086-0.175C18.712,11.429,18.158,11,17.5,11
		c-0.827,0-1.5,0.673-1.5,1.5v9c0,0.827,0.673,1.5,1.5,1.5c0.658,0,1.212-0.429,1.414-1.019C21.753,21.787,24,19.63,24,17
		C24,15.062,22.778,13.382,21,12.552z M6.5,12C6.775,12,7,12.224,7,12.5v9C7,21.776,6.775,22,6.5,22S6,21.776,6,21.5v-9
		C6,12.224,6.225,12,6.5,12z M5,20.976C2.753,20.753,1,19.055,1,17s1.753-3.753,4-3.976V20.976z M17.5,22c-0.275,0-0.5-0.224-0.5-0.5
		v-9c0-0.276,0.225-0.5,0.5-0.5s0.5,0.224,0.5,0.5v9C18,21.776,17.775,22,17.5,22z M19,20.976v-7.951c2.247,0.222,4,1.92,4,3.976
		S21.247,20.753,19,20.976z"/>
</svg>
