<?xml version="1.0" encoding="utf-8"?>
<!DOCTYPE svg PUBLIC "-//W3C//DTD SVG 1.1//EN" "http://www.w3.org/Graphics/SVG/1.1/DTD/svg11.dtd">
<svg version="1.1" xmlns="http://www.w3.org/2000/svg" x="0px" y="0px" viewBox="0 0 24 24">
	<linearGradient id="gradient" x1="0%" y1="0%" x2="50%" y2="100%">
		<stop offset="0%" style="stop-color: #2f88d6" />
		<stop offset="100%" style="stop-color: #2ac4ea" />
    </linearGradient>
	<path fill="url(#gradient)" d="M21,13.5c0,0.276,0.224,0.5,0.5,0.5h1c0.276,0,0.5-0.224,0.5-0.5S22.776,13,22.5,13h-1
		C21.224,13,21,13.224,21,13.5z"/>
	<path fill="url(#gradient)" d="M0,13.5C0,13.776,0.224,14,0.5,14h1C1.776,14,2,13.776,2,13.5S1.776,13,1.5,13h-1C0.224,13,0,13.224,0,13.5z
		"/>
	<path fill="url(#gradient)" d="M12,3.5v-1C12,2.224,11.776,2,11.5,2S11,2.224,11,2.5v1C11,3.776,11.224,4,11.5,4S12,3.776,12,3.5z"/>
	<path fill="url(#gradient)" d="M18.925,20.218c-0.195-0.195-0.512-0.195-0.707,0s-0.195,0.512,0,0.707l0.707,0.707
		c0.098,0.098,0.226,0.146,0.354,0.146s0.256-0.049,0.354-0.146c0.195-0.195,0.195-0.512,0-0.707L18.925,20.218z"/>
	<path fill="url(#gradient)" d="M4.075,5.368c-0.195-0.195-0.512-0.195-0.707,0s-0.195,0.512,0,0.707l0.707,0.707
		C4.173,6.88,4.301,6.929,4.429,6.929S4.685,6.88,4.782,6.782c0.195-0.195,0.195-0.512,0-0.707L4.075,5.368z"/>
	<path fill="url(#gradient)" d="M3.368,21.632c0.098,0.098,0.226,0.146,0.354,0.146s0.256-0.049,0.354-0.146l0.707-0.707
		c0.195-0.195,0.195-0.512,0-0.707s-0.512-0.195-0.707,0l-0.707,0.707C3.173,21.12,3.173,21.437,3.368,21.632z"/>
	<path fill="url(#gradient)" d="M19.632,5.368c-0.195-0.195-0.512-0.195-0.707,0l-0.707,0.707c-0.195,0.195-0.195,0.512,0,0.707
		c0.098,0.098,0.226,0.146,0.354,0.146s0.256-0.049,0.354-0.146l0.707-0.707C19.827,5.88,19.827,5.563,19.632,5.368z"/>
	<path fill="url(#gradient)" d="M20.548,17.789l0.924,0.383c0.063,0.026,0.127,0.038,0.191,0.038c0.196,0,0.382-0.116,0.462-0.309
		c0.105-0.255-0.016-0.548-0.271-0.653l-0.924-0.383c-0.253-0.105-0.547,0.015-0.653,0.271C20.172,17.39,20.293,17.683,20.548,17.789
		z"/>
	<path fill="url(#gradient)" d="M2.452,9.211L1.528,8.829C1.276,8.724,0.981,8.844,0.875,9.099C0.77,9.354,0.891,9.647,1.146,9.752
		l0.924,0.383c0.063,0.026,0.127,0.038,0.191,0.038c0.196,0,0.382-0.116,0.462-0.309C2.828,9.61,2.707,9.317,2.452,9.211z"/>
	<path fill="url(#gradient)" d="M15.327,4.761c0.196,0,0.382-0.116,0.462-0.309l0.383-0.924c0.105-0.255-0.016-0.548-0.271-0.653
		c-0.253-0.105-0.547,0.015-0.653,0.271L14.865,4.07c-0.105,0.255,0.016,0.548,0.271,0.653C15.198,4.749,15.263,4.761,15.327,4.761z"
		/>
	<path fill="url(#gradient)" d="M7.673,4.761c0.063,0,0.129-0.012,0.191-0.038C8.119,4.618,8.24,4.325,8.135,4.07L7.752,3.146
		C7.646,2.891,7.355,2.771,7.099,2.875C6.844,2.981,6.723,3.274,6.828,3.529l0.383,0.924C7.291,4.645,7.477,4.761,7.673,4.761z"/>
	<path fill="url(#gradient)" d="M2.069,16.865l-0.924,0.383c-0.255,0.105-0.376,0.398-0.271,0.653c0.08,0.192,0.266,0.309,0.462,0.309
		c0.063,0,0.129-0.012,0.191-0.038l0.924-0.383c0.255-0.105,0.376-0.398,0.271-0.653C2.617,16.881,2.326,16.759,2.069,16.865z"/>
	<path fill="url(#gradient)" d="M21.472,8.829l-0.924,0.383c-0.255,0.105-0.376,0.398-0.271,0.653c0.08,0.192,0.266,0.309,0.462,0.309
		c0.063,0,0.129-0.012,0.191-0.038l0.924-0.383c0.255-0.105,0.376-0.398,0.271-0.653C22.02,8.845,21.729,8.724,21.472,8.829z"/>
	<path fill="url(#gradient)" d="M4,13.5c0,4.136,3.364,7.5,7.5,7.5s7.5-3.364,7.5-7.5S15.636,6,11.5,6S4,9.364,4,13.5z M12,7.025V9.5
		c0,0.276-0.225,0.5-0.5,0.5S11,9.776,11,9.5V7.025C11.166,7.013,11.331,7,11.5,7S11.834,7.013,12,7.025z M10,7.182V9.5
		c0,0.827,0.673,1.5,1.5,1.5S13,10.327,13,9.5V7.182c2.862,0.68,5,3.251,5,6.318c0,3.584-2.916,6.5-6.5,6.5S5,17.084,5,13.5
		C5,10.433,7.138,7.862,10,7.182z"/>
</svg>
