<?xml version="1.0" encoding="utf-8"?>
<!DOCTYPE svg PUBLIC "-//W3C//DTD SVG 1.1//EN" "http://www.w3.org/Graphics/SVG/1.1/DTD/svg11.dtd">
<svg version="1.1" xmlns="http://www.w3.org/2000/svg" x="0px" y="0px" viewBox="0 0 24 24">
	<linearGradient id="gradient" x1="0%" y1="0%" x2="50%" y2="100%">
		<stop offset="0%" style="stop-color: #2f88d6" />
		<stop offset="100%" style="stop-color: #2ac4ea" />
    </linearGradient>
	<path fill="url(#gradient)" d="M1.5,22h21c0.827,0,1.5-0.673,1.5-1.5v-13C24,6.673,23.327,6,22.5,6h-5.733l-1.851-2.777
		C14.823,3.083,14.667,3,14.5,3h-5C9.333,3,9.177,3.083,9.084,3.223L7.232,6H6V4.5C6,4.224,5.776,4,5.5,4h-3C2.224,4,2,4.224,2,4.5V6
		H1.5C0.673,6,0,6.673,0,7.5v13C0,21.327,0.673,22,1.5,22z M9.768,4h4.465l1.333,2H8.434L9.768,4z M3,5h2v1H3V5z M1,7.5
		C1,7.224,1.224,7,1.5,7h1h3h2h9h0.02h5.98C22.776,7,23,7.224,23,7.5v13c0,0.276-0.224,0.5-0.5,0.5h-21C1.224,21,1,20.776,1,20.5V7.5
		z"/>
	<path fill="url(#gradient)" d="M12,20c3.309,0,6-2.691,6-6s-2.691-6-6-6s-6,2.691-6,6S8.691,20,12,20z M12,9c2.757,0,5,2.243,5,5
		s-2.243,5-5,5s-5-2.243-5-5S9.243,9,12,9z"/>
	<path fill="url(#gradient)" d="M10.045,11.599c0.096,0,0.193-0.028,0.279-0.085c0.16-0.108,0.331-0.201,0.51-0.277
		c0.254-0.108,0.373-0.401,0.265-0.656c-0.108-0.255-0.401-0.371-0.656-0.265c-0.237,0.101-0.465,0.225-0.679,0.369
		c-0.229,0.155-0.289,0.465-0.135,0.694C9.727,11.521,9.884,11.599,10.045,11.599z"/>
	<path fill="url(#gradient)" d="M9.173,16.828c0.098,0.097,0.225,0.146,0.353,0.146c0.128,0,0.256-0.049,0.354-0.147
		c0.195-0.196,0.194-0.512-0.001-0.707c-0.136-0.136-0.259-0.285-0.366-0.444c-0.108-0.16-0.201-0.331-0.277-0.51
		c-0.077-0.183-0.136-0.371-0.175-0.562C9.021,14.407,9,14.204,9,14s0.021-0.407,0.061-0.604c0.039-0.19,0.098-0.379,0.174-0.56
		c0.038-0.089,0.08-0.177,0.126-0.261c0.132-0.243,0.042-0.546-0.2-0.678c-0.245-0.133-0.546-0.042-0.678,0.2
		c-0.062,0.113-0.117,0.229-0.168,0.349c-0.103,0.244-0.182,0.496-0.233,0.75C8.027,13.458,8,13.729,8,14s0.027,0.542,0.082,0.805
		c0.052,0.255,0.13,0.507,0.233,0.751c0.101,0.237,0.225,0.465,0.37,0.68C8.829,16.45,8.994,16.648,9.173,16.828z"/>
	<path fill="url(#gradient)" d="M20.5,11c0.827,0,1.5-0.673,1.5-1.5S21.327,8,20.5,8S19,8.673,19,9.5S19.673,11,20.5,11z M20.5,9
		C20.776,9,21,9.224,21,9.5S20.776,10,20.5,10S20,9.776,20,9.5S20.224,9,20.5,9z"/>
</svg>
