<?xml version="1.0" encoding="utf-8"?>
<!DOCTYPE svg PUBLIC "-//W3C//DTD SVG 1.1//EN" "http://www.w3.org/Graphics/SVG/1.1/DTD/svg11.dtd">
<svg version="1.1" xmlns="http://www.w3.org/2000/svg" x="0px" y="0px" viewBox="0 0 24 24">
	<linearGradient id="gradient" x1="0%" y1="0%" x2="50%" y2="100%">
		<stop offset="0%" style="stop-color: #2f88d6" />
		<stop offset="100%" style="stop-color: #2ac4ea" />
    </linearGradient>
	<path fill="url(#gradient)" d="M19.978,9.333c-0.099-0.637-0.768-1.16-1.995-1.56c-0.04-0.453-0.215-0.876-0.519-1.202
		c-0.355-0.384-0.831-0.595-1.339-0.595c-0.002,0-0.004,0-0.006,0c-0.089-0.465-0.303-0.893-0.623-1.237
		c-0.688-0.741-1.788-0.943-2.657-0.5c-0.135,0.068-0.262,0.15-0.381,0.244c-0.12-0.095-0.247-0.176-0.379-0.243
		c-0.462-0.235-0.981-0.304-1.5-0.181c-0.076,0.019-0.151,0.04-0.225,0.066c-0.059-0.023-0.119-0.043-0.178-0.06
		c-0.545-0.156-1.13-0.03-1.578,0.321C8.386,4.554,8.212,4.763,8.084,5.002c-0.536,0.06-1.03,0.313-1.413,0.726
		C6.238,6.192,6,6.81,6,7.465C6,7.567,6.005,7.674,6.013,7.78c-1.225,0.396-1.891,0.917-1.99,1.552l-3.964,7.432
		C0.02,16.837,0,16.918,0,17c0,2.373,7.85,3,12,3s12-0.627,12-3c0-0.082-0.02-0.163-0.059-0.235L19.978,9.333z M7.404,6.407
		c0.245-0.264,0.565-0.412,0.948-0.412c0.01,0,0.02,0.001,0.029,0.001C8.616,6.017,8.82,5.869,8.891,5.65
		c0.062-0.19,0.177-0.36,0.325-0.477c0.198-0.153,0.433-0.218,0.689-0.146c0.063,0.018,0.126,0.045,0.188,0.079
		c0.142,0.082,0.315,0.088,0.463,0.016c0.083-0.039,0.17-0.07,0.255-0.092c0.272-0.063,0.559-0.03,0.813,0.101
		c0.166,0.084,0.32,0.21,0.445,0.365c0.189,0.232,0.587,0.232,0.776,0c0.126-0.155,0.28-0.282,0.446-0.366
		c0.484-0.246,1.083-0.127,1.47,0.288c0.26,0.28,0.403,0.656,0.396,1.12c-0.011,0.17,0.066,0.334,0.204,0.435
		s0.318,0.124,0.476,0.063c0.049-0.02,0.099-0.035,0.15-0.046c0.271-0.059,0.544,0.047,0.743,0.261C16.904,7.438,17,7.689,17,7.959
		c0,0.352-0.115,0.475-0.214,0.542c-0.091,0.062-0.222,0.108-0.387,0.139c-1.6,0.293-3.208,0.411-4.792,0.342
		c-1.398-0.058-2.611-0.196-3.706-0.423C7.583,8.492,7.338,8.374,7.175,8.208C7.125,8.157,7.09,8.087,7.063,8.002
		c0-0.001,0-0.002,0-0.003c0-0.002-0.002-0.003-0.003-0.005C7.02,7.867,7,7.701,7,7.465C7,7.063,7.143,6.688,7.404,6.407z
		 M6.329,8.728c0.043,0.06,0.077,0.124,0.132,0.18c0.305,0.31,0.721,0.521,1.237,0.629c1.149,0.238,2.415,0.383,3.867,0.444
		C11.869,9.994,12.172,10,12.476,10c1.355,0,2.736-0.127,4.104-0.376c0.307-0.057,0.557-0.153,0.768-0.296
		c0.213-0.145,0.373-0.331,0.482-0.555C18.786,9.108,19,9.424,19,9.5c0,0.448-2.381,1.5-7,1.5S5,9.948,5,9.5
		C5,9.424,5.255,9.076,6.329,8.728z M12,19c-6.822,0-10.673-1.214-10.98-1.912l3.524-6.608C5.786,11.516,8.979,12,12,12
		s6.214-0.484,7.456-1.52l3.524,6.608C22.673,17.786,18.822,19,12,19z"/>
	<path fill="url(#gradient)" d="M16,13c-0.808,0-1.51,0.402-1.82,1H9.825C9.509,13.402,8.803,13,8,13c-1.103,0-2,0.763-2,1.7
		c0,0.283,0.082,0.557,0.236,0.8C6.082,15.743,6,16.017,6,16.3C6,17.237,6.897,18,8,18c0.803,0,1.509-0.402,1.825-1h4.355
		c0.31,0.598,1.012,1,1.82,1c1.103,0,2-0.763,2-1.7c0-0.283-0.082-0.557-0.236-0.8C17.918,15.257,18,14.983,18,14.7
		C18,13.763,17.103,13,16,13z M16.781,15.877C16.881,15.964,17,16.108,17,16.3c0,0.38-0.458,0.7-1,0.7
		c-0.484,0-0.915-0.262-0.979-0.595C14.975,16.17,14.77,16,14.53,16H9.48c-0.236,0-0.44,0.166-0.489,0.396
	C8.919,16.735,8.484,17,8,17c-0.542,0-1-0.32-1-0.7c0-0.191,0.119-0.336,0.219-0.423C7.328,15.781,7.39,15.645,7.39,15.5
	s-0.063-0.281-0.171-0.377C7.119,15.036,7,14.892,7,14.7C7,14.32,7.458,14,8,14c0.484,0,0.919,0.265,0.991,0.604
	C9.04,14.834,9.244,15,9.48,15h5.05c0.24,0,0.445-0.17,0.491-0.405C15.085,14.262,15.516,14,16,14c0.542,0,1,0.32,1,0.7
	c0,0.191-0.119,0.336-0.219,0.423c-0.108,0.096-0.171,0.232-0.171,0.377S16.672,15.781,16.781,15.877z"/>
</svg>
