<?xml version="1.0" encoding="utf-8"?>
<!DOCTYPE svg PUBLIC "-//W3C//DTD SVG 1.1//EN" "http://www.w3.org/Graphics/SVG/1.1/DTD/svg11.dtd">
<svg version="1.1" xmlns="http://www.w3.org/2000/svg" x="0px" y="0px" viewBox="0 0 24 24">
	<linearGradient id="gradient" x1="0%" y1="0%" x2="50%" y2="100%">
		<stop offset="0%" style="stop-color: #2f88d6" />
		<stop offset="100%" style="stop-color: #2ac4ea" />
    </linearGradient>
	<path fill="url(#gradient)" d="M8.999,12.001c-1.654,0-3,1.346-3,3s1.346,3,3,3s3-1.346,3-3S10.653,12.001,8.999,12.001z M8.999,17.001
		c-1.103,0-2-0.897-2-2s0.897-2,2-2s2,0.897,2,2S10.102,17.001,8.999,17.001z"/>
	<path fill="url(#gradient)" d="M4.853,16.147c-0.195-0.195-0.512-0.195-0.707,0s-0.195,0.512,0,0.707l3,3
		c0.098,0.098,0.226,0.146,0.354,0.146s0.256-0.049,0.354-0.146c0.195-0.195,0.195-0.512,0-0.707L4.853,16.147z"/>
	<path fill="url(#gradient)" d="M23.162,3.457l0.294-0.294c0.722-0.722,0.722-1.897,0-2.619c-0.699-0.699-1.92-0.699-2.619,0l-0.294,0.294
		l-0.69-0.69c-0.195-0.195-0.512-0.195-0.707,0s-0.195,0.512,0,0.707l0.69,0.69l-1.293,1.293l-0.69-0.69
		c-0.195-0.195-0.512-0.195-0.707,0s-0.195,0.512,0,0.707l0.69,0.69l-4.197,4.197c-1.812-1.168-3.164-0.725-3.991-0.1
		C9.071,8.076,8.678,8.646,8.298,9.195l-0.21,0.302c-0.539,0.779-1.046,1.214-1.641,1.407c-0.375,0.119-0.765,0.15-1.178,0.184
		c-0.473,0.037-0.963,0.076-1.47,0.25c-0.977,0.328-1.88,0.947-2.548,1.747c-1.003,1.226-1.442,2.827-1.176,4.281
		c0.273,1.582,1.443,2.915,2.547,4.007c1.096,1.107,2.429,2.277,4.006,2.551c0.271,0.05,0.551,0.073,0.832,0.073
		c1.212,0,2.474-0.448,3.446-1.25c0.805-0.663,1.408-1.544,1.745-2.545c0.173-0.508,0.214-0.996,0.255-1.469
		c0.035-0.413,0.068-0.804,0.189-1.183c0.23-0.738,0.839-1.25,1.397-1.648l0.275-0.188c0.564-0.383,1.148-0.778,1.579-1.361
		c0.627-0.831,1.073-2.185-0.09-3.992l4.196-4.196l0.69,0.69c0.098,0.098,0.226,0.146,0.354,0.146s0.256-0.049,0.354-0.146
		c0.195-0.195,0.195-0.512,0-0.707l-0.69-0.69l1.293-1.293l0.69,0.69c0.098,0.098,0.226,0.146,0.354,0.146s0.256-0.049,0.354-0.146
		c0.195-0.195,0.195-0.512,0-0.707L23.162,3.457z M22.749,1.251c0.161,0.161,0.25,0.375,0.25,0.603s-0.089,0.441-0.25,0.603
		l-9.338,9.338l-1.205-1.205l9.338-9.338C21.866,0.929,22.427,0.929,22.749,1.251z M15.547,13.754
		c-0.332,0.45-0.82,0.781-1.338,1.132l-0.291,0.198c-0.658,0.471-1.455,1.142-1.775,2.166c-0.154,0.483-0.193,0.948-0.232,1.398
		c-0.036,0.432-0.071,0.839-0.205,1.233c-0.274,0.813-0.783,1.557-1.435,2.094c-0.977,0.807-2.301,1.175-3.467,0.964
		c-1.479-0.257-2.874-1.667-3.474-2.273c-0.603-0.596-2.013-1.991-2.27-3.475c-0.212-1.156,0.158-2.487,0.962-3.47
		c0.548-0.655,1.292-1.166,2.099-1.438c0.391-0.133,0.797-0.165,1.229-0.199c0.45-0.036,0.916-0.073,1.403-0.229
		c1.052-0.342,1.706-1.137,2.154-1.786L9.12,9.765c0.351-0.508,0.683-0.987,1.131-1.325c0.779-0.586,1.656-0.58,2.671,0.019
		l-1.777,1.777c-0.195,0.195-0.195,0.512,0,0.707l1.912,1.912c0.098,0.098,0.226,0.146,0.354,0.146s0.256-0.049,0.354-0.146
		l1.777-1.777C16.138,12.088,16.142,12.967,15.547,13.754z"/>
</svg>
