<?xml version="1.0" encoding="utf-8"?>
<!-- Generator: Adobe Illustrator 21.0.0, SVG Export Plug-In . SVG Version: 6.00 Build 0)  -->
<svg version="1.1" id="Layer_1" xmlns="http://www.w3.org/2000/svg" xmlns:xlink="http://www.w3.org/1999/xlink" x="0px" y="0px"
	 width="60px" height="60px" viewBox="0 0 60 60" style="enable-background:new 0 0 60 60;" xml:space="preserve">
<style type="text/css">
	.st0{fill:#2F88D6;}
</style>
<title></title>
<desc></desc>
<g id="People">
	<g id="Icon-61">
		<path id="control-play" class="st0" d="M40,30c0,0.3-0.2,0.7-0.5,0.8l-10,6.4c-0.5,0.3-1.1,0.2-1.4-0.3c-0.3-0.5-0.2-1.1,0.3-1.4
			l8.7-5.6L26,22.8V39c0,0.6-0.4,1-1,1s-1-0.4-1-1V21c0-0.4,0.2-0.7,0.5-0.9c0.3-0.2,0.7-0.2,1,0l14,9C39.8,29.3,40,29.7,40,30
			 M30,58C14.6,58,2,45.4,2,30S14.6,2,30,2s28,12.6,28,28S45.4,58,30,58 M30,0C13.5,0,0,13.5,0,30s13.5,30,30,30s30-13.5,30-30
			S46.5,0,30,0"/>
	</g>
</g>
</svg>
